<!DOCTYPE svg PUBLIC "-//W3C//DTD SVG 20010904//EN" "http://www.w3.org/TR/2001/REC-SVG-20010904/DTD/svg10.dtd">
<svg xmlns="http://www.w3.org/2000/svg" xmlns:xlink="http://www.w3.org/1999/xlink" viewBox="0 0 48 48" version="1.1">
<g id="surface1">
<path style=" fill:#B57E02;" d="M 25 39 L 29 39 C 29 39 28.0625 34.9375 28.0625 31.9375 C 28.0625 29.699219 28 17 28 17 Z "></path>
<path style=" fill:#5EC08F;" d="M 17 45 L 19 39 L 29 39 L 31 45 C 31 45 31 46 30 46 C 29 46 19 46 18 46 C 17 46 17 45 17 45 Z "></path>
<path style=" fill:#DD9F05;" d="M 34 12 C 34 17.523438 29.523438 22 24 22 C 18.476563 22 14 17.523438 14 12 C 14 6.476563 18.476563 2 24 2 C 29.523438 2 34 6.476563 34 12 Z "></path>
<path style=" fill:#DD9F05;" d="M 22 39 C 22 39 29 20 32 20 C 30 25 29 35 26 39 Z "></path>
<path style=" fill:#398E5F;" d="M 29.664063 41 L 29 39 L 19 39 L 18.335938 41 Z "></path>
<path style=" fill:#FFC107;" d="M 16 14 C 16 8.476563 20.476563 4 26 4 C 28.25 4 30.320313 4.753906 31.992188 6.007813 C 30.167969 3.578125 27.269531 2 24 2 C 18.476563 2 14 6.476563 14 12 C 14 15.269531 15.578125 18.167969 18.007813 19.992188 C 16.753906 18.320313 16 16.25 16 14 Z "></path>
<path style=" fill:#FFC107;" d="M 13 15 C 13 15 18 21 19 25 C 20 29 20 31 19 39 L 25 39 C 25 39 23.664063 15.199219 20.4375 16.8125 C 18.730469 18.292969 16 19 13 15 Z "></path>
<path style=" fill:#B57E02;" d="M 29 15.75 C 29 13.679688 27.65625 12 26 12 C 24.34375 12 23 13.679688 23 15.75 C 23 17.820313 24.34375 19.5 26 19.5 C 27.65625 19.5 29 17.820313 29 15.75 Z "></path>
<path style=" fill:#B57E02;" d="M 27 20 C 29.457031 20 31.15625 16.609375 32.101563 13.988281 L 33 11 C 33 11 30 17 27 18 C 24.621094 18.792969 21.949219 14.804688 20.941406 13.113281 C 22.398438 15.824219 23.8125 20 27 20 Z "></path>
<path style=" fill:#B57E02;" d="M 18.125 12.457031 C 18.121094 12.453125 18.121094 12.453125 18.121094 12.449219 C 18.363281 13.441406 18.78125 15.765625 17.464844 15.992188 C 16.449219 16.003906 15.144531 15.417969 14 13.027344 L 13.007813 15.011719 C 13.027344 15.03125 13.222656 15.269531 13.539063 15.671875 C 16.273438 18.847656 18.734375 18.226563 20.34375 16.886719 C 19.363281 14.722656 18.417969 12.988281 18.125 12.457031 Z "></path>
<path style=" fill:#FFE082;" d="M 34 10 C 33.445313 10 33 10.445313 33 11 C 33 11 31 20 27 20 C 23 20 21.792969 13.417969 19.792969 11.417969 C 19.609375 11.171875 19.332031 11 19 11 C 18.445313 11 18 11.445313 18 12 C 18 12.089844 18.027344 12.171875 18.050781 12.257813 L 18.019531 12.269531 C 18.019531 12.269531 18.039063 12.304688 18.074219 12.367188 C 18.085938 12.398438 18.109375 12.425781 18.125 12.457031 C 18.808594 13.6875 23 21.40625 23 26 C 23 31 19 39 19 39 L 22 39 C 24 36 35 17 35 11 C 35 10.445313 34.554688 10 34 10 Z "></path>
<path style=" fill:#FFE082;" d="M 29 15.5 C 29 14.121094 28.105469 13 27 13 C 25.894531 13 25 14.121094 25 15.5 C 25 16.878906 25.894531 18 27 18 C 28.105469 18 29 16.878906 29 15.5 Z "></path>
</g>
</svg>