<!DOCTYPE svg PUBLIC "-//W3C//DTD SVG 20010904//EN" "http://www.w3.org/TR/2001/REC-SVG-20010904/DTD/svg10.dtd">
<svg version="1.1" id="Слой_1" xmlns="http://www.w3.org/2000/svg" xmlns:xlink="http://www.w3.org/1999/xlink" x="0px" y="0px" viewBox="0 0 128 128" enable-background="new 0 0 128 128" xml:space="preserve">
<g>
	<path fill="#E5E5E5" d="M104,94H24c-5.5,0-10-4.5-10-10V44c0-5.5,4.5-10,10-10h80c5.5,0,10,4.5,10,10v40C114,89.5,109.5,94,104,94z
		"></path>
	<path fill="#FFFFFF" d="M64,34H24c-5.5,0-10,4.5-10,10v40c0,5.5,4.5,10,10,10h40V34z"></path>
	<path fill="#454B54" d="M40.4,73.9C39,73.7,38,72.3,38,70.9V65h-1.9c-1.5,0-2.8-1-3.1-2.4C32.7,60.7,34.1,59,36,59h0.1
		c1,0,1.9-0.8,1.9-1.9v0c0-1.5,1-2.8,2.4-3.1c1.9-0.4,3.6,1.1,3.6,2.9v14C44,72.9,42.3,74.3,40.4,73.9z"></path>
	
		<line fill="none" stroke="#454B54" stroke-width="6" stroke-linecap="round" stroke-linejoin="round" stroke-miterlimit="10" stroke-dasharray="6,12" x1="64" y1="94" x2="64" y2="34"></line>
	<path fill="none" stroke="#454B54" stroke-width="6" stroke-linecap="round" stroke-linejoin="round" stroke-miterlimit="10" d="
		M104,94H24c-5.5,0-10-4.5-10-10V44c0-5.5,4.5-10,10-10h80c5.5,0,10,4.5,10,10v40C114,89.5,109.5,94,104,94z"></path>
	<path fill="none" stroke="#454B54" stroke-width="6" stroke-linecap="round" stroke-linejoin="round" stroke-miterlimit="10" d="
		M90,71L90,71c-2.8,0-5-2.2-5-5v-4c0-2.8,2.2-5,5-5h0c2.8,0,5,2.2,5,5v4C95,68.8,92.8,71,90,71z"></path>
	
		<line fill="none" stroke="#454B54" stroke-width="6" stroke-linecap="round" stroke-linejoin="round" stroke-miterlimit="10" x1="34" y1="24" x2="34" y2="24"></line>
	
		<line fill="none" stroke="#454B54" stroke-width="6" stroke-linecap="round" stroke-linejoin="round" stroke-miterlimit="10" x1="94" y1="24" x2="94" y2="24"></line>
</g>
</svg>