<!DOCTYPE svg PUBLIC "-//W3C//DTD SVG 20010904//EN" "http://www.w3.org/TR/2001/REC-SVG-20010904/DTD/svg10.dtd">
<svg xmlns="http://www.w3.org/2000/svg" xmlns:xlink="http://www.w3.org/1999/xlink" viewBox="0 0 24 24" version="1.1">
<g>
<path d="M5.2440619468688965,2.1720662117004395 C3.933011531829834,2.1720662117004395 2.8524060249328613,3.22507905960083 2.8524060249328613,4.502653121948242 L2.8524060249328613,6.83323860168457 L17.202343463897705,6.83323860168457 L17.202343463897705,4.502653121948242 C17.202343463897705,4.062633991241455 17.548012256622314,3.7257909774780273 17.99956178665161,3.7257909774780273 C18.451111316680908,3.7257909774780273 18.796780109405518,4.062633991241455 18.796780109405518,4.502653121948242 L18.796780109405518,18.48617172241211 C18.796780109405518,18.759288787841797 18.855949878692627,19.017230987548828 18.946259021759033,19.26303482055664 L7.635717868804932,19.26303482055664 C7.184168338775635,19.26303482055664 6.838499546051025,18.926193237304688 6.838499546051025,18.48617172241211 L6.838499546051025,7.610101699829102 L5.2440619468688965,7.610101699829102 L5.2440619468688965,18.48617172241211 C5.2440619468688965,19.763748168945312 6.324667453765869,20.816761016845703 7.635717868804932,20.816761016845703 L21.18843698501587,20.816761016845703 C22.49948740005493,20.816761016845703 23.58009386062622,19.763748168945312 23.58009386062622,18.48617172241211 L23.58009386062622,16.15558624267578 L20.391218662261963,16.15558624267578 L20.391218662261963,4.502653121948242 C20.391218662261963,3.22507905960083 19.310614109039307,2.1720662117004395 17.99956178665161,2.1720662117004395 zM5.2440619468688965,3.7257909774780273 L15.757383823394775,3.7257909774780273 C15.66707468032837,3.97159481048584 15.60790491104126,4.2295379638671875 15.60790491104126,4.502653121948242 L15.60790491104126,5.279515266418457 L4.44684362411499,5.279515266418457 L4.44684362411499,4.502653121948242 C4.44684362411499,4.062633991241455 4.792512893676758,3.7257909774780273 5.2440619468688965,3.7257909774780273 zM9.23015546798706,8.386962890625 L9.23015546798706,9.94068717956543 L15.60790491104126,9.94068717956543 L15.60790491104126,8.386962890625 zM9.23015546798706,11.494412422180176 L9.23015546798706,13.048137664794922 L15.60790491104126,13.048137664794922 L15.60790491104126,11.494412422180176 zM9.23015546798706,14.601860046386719 L9.23015546798706,16.15558624267578 L13.216249942779541,16.15558624267578 L13.216249942779541,14.601860046386719 zM20.391218662261963,17.709312438964844 L21.985655307769775,17.709312438964844 L21.985655307769775,18.48617172241211 C21.985655307769775,18.926193237304688 21.639986515045166,19.26303482055664 21.18843698501587,19.26303482055664 C20.736887454986572,19.26303482055664 20.391218662261963,18.926193237304688 20.391218662261963,18.48617172241211 Z " transform="rotate(-180, 13.5, 11)"/>
</g>
</svg>